HIERARCHY
ROOT ROOT
{
	OFFSET 0.000000 56.020000 -5.659234
	CHANNELS 6 Xposition Yposition Zposition Xrotation Yrotation Zrotation 
	JOINT C_spine0001_bind_JNT
	{
		OFFSET 0.000000 1.618999 0.000000
		CHANNELS 3 Xrotation Yrotation Zrotation
		JOINT C_spine0002_bind_JNT
		{
			OFFSET 0.000000 4.942001 0.000001
			CHANNELS 3 Xrotation Yrotation Zrotation
			JOINT C_spine0003_bind_JNT
			{
				OFFSET 0.000000 4.942001 -0.000000
				CHANNELS 3 Xrotation Yrotation Zrotation
				JOINT C_neck0001_bind_JNT
				{
					OFFSET 0.000000 17.026009 -0.000000
					CHANNELS 3 Xrotation Yrotation Zrotation
					JOINT C_neck0002_bind_JNT
					{
						OFFSET 0.000000 3.249985 0.000000
						CHANNELS 3 Xrotation Yrotation Zrotation
						JOINT C_head_bind_JNT
						{
							OFFSET 0.000000 5.278008 0.000000
							CHANNELS 3 Xrotation Yrotation Zrotation
							End Site
							{
								OFFSET 0.000000 0.000000 0.000000
							}
						}
					}
				}
				JOINT L_clavicle_bind_JNT
				{
					OFFSET 4.590000 12.067001 0.834000
					CHANNELS 3 Xrotation Yrotation Zrotation
					JOINT L_armUpper0001_bind_JNT
					{
						OFFSET 7.812635 0.512001 -3.452945
						CHANNELS 3 Xrotation Yrotation Zrotation
						JOINT L_armLower0001_bind_JNT
						{
							OFFSET 15.265892 -6.552116 -0.058157
							CHANNELS 3 Xrotation Yrotation Zrotation
							JOINT L_hand0001_bind_JNT
							{
								OFFSET 14.747667 -6.369995 5.049225
								CHANNELS 3 Xrotation Yrotation Zrotation
								End Site
								{
									OFFSET 0.000000 0.000000 0.000000
								}
							}
						}
					}
				}
				JOINT R_clavicle_bind_JNT
				{
					OFFSET -4.590000 12.067001 0.834000
					CHANNELS 3 Xrotation Yrotation Zrotation
					JOINT R_armUpper0001_bind_JNT
					{
						OFFSET -7.812635 0.512001 -3.452945
						CHANNELS 3 Xrotation Yrotation Zrotation
						JOINT R_armLower0001_bind_JNT
						{
							OFFSET -15.265890 -6.552124 -0.058160
							CHANNELS 3 Xrotation Yrotation Zrotation
							JOINT R_hand0001_bind_JNT
							{
								OFFSET -14.746784 -6.369629 5.048937
								CHANNELS 3 Xrotation Yrotation Zrotation
								End Site
								{
									OFFSET 0.000000 0.000000 0.000000
								}
							}
						}
					}
				}
			}
		}
	}
	JOINT C_pelvis0001_bind_JNT
	{
		OFFSET -0.000000 0.000000 0.000000
		CHANNELS 3 Xrotation Yrotation Zrotation
		JOINT L_legUpper0001_bind_JNT
		{
			OFFSET 6.599999 -6.027000 0.539000
			CHANNELS 3 Xrotation Yrotation Zrotation
			JOINT L_legLower0001_bind_JNT
			{
				OFFSET -0.140713 -19.187443 0.040261
				CHANNELS 3 Xrotation Yrotation Zrotation
				JOINT L_foot0001_bind_JNT
				{
					OFFSET -0.132215 -18.028637 -1.138370
					CHANNELS 3 Xrotation Yrotation Zrotation
					JOINT L_foot0002_bind_JNT
					{
						OFFSET 0.007014 -4.693133 9.886524
						CHANNELS 3 Xrotation Yrotation Zrotation
						End Site
						{
							OFFSET 0.000000 0.000000 0.000000
						}
					}
				}
			}
		}
		JOINT R_legUpper0001_bind_JNT
		{
			OFFSET -6.599999 -6.027000 0.539000
			CHANNELS 3 Xrotation Yrotation Zrotation
			JOINT R_legLower0001_bind_JNT
			{
				OFFSET 0.140710 -19.187164 0.040550
				CHANNELS 3 Xrotation Yrotation Zrotation
				JOINT R_foot0001_bind_JNT
				{
					OFFSET 0.132215 -18.028633 -1.138362
					CHANNELS 3 Xrotation Yrotation Zrotation
					JOINT R_foot0002_bind_JNT
					{
						OFFSET -0.007014 -4.693128 9.886505
						CHANNELS 3 Xrotation Yrotation Zrotation
						End Site
						{
							OFFSET 0.000000 0.000000 0.000000
						}
					}
				}
			}
		}
	}
}
MOTION
Frames: 9
Frame Time: 0.033333
0.000000 47.903938 0.000000 0.056623 0.806350 -0.038741 18.933538 -0.614071 1.682622 0.758786 -0.608554 0.535579 9.974569 0.455687 -0.330861 19.241306 -0.877968 0.226422 -0.900492 -0.114300 -0.192561 -1.719869 -1.133600 0.261355 4.785939 10.943294 8.401200 -29.448803 -0.763250 -47.737251 -20.566313 -6.164216 -11.125474 -3.132832 -10.624251 -11.004653 4.273697 -8.881286 -6.554273 -28.257963 2.793524 47.695335 -10.059407 3.580490 4.583427 -2.073887 9.914903 12.189871 14.680845 0.252084 2.016775 -22.889055 4.773313 1.070992 39.808353 0.403202 -2.924082 -2.798643 1.550248 -6.308487 -27.122940 -2.232570 4.678302 -32.934315 -8.060067 1.338278 28.676828 1.590628 1.436971 -6.881946 -1.437496 -4.733285 -3.377521 0.408603 -1.299835
0.117611 47.874725 0.141036 0.024119 -0.462362 -0.024562 19.863401 0.646445 1.460411 -0.150200 -0.474292 0.384265 10.399570 0.238630 0.128344 18.783373 -0.848299 -0.127866 -0.314380 -0.668470 -0.111971 -2.508928 -0.988913 0.481655 4.500250 11.738214 8.573898 -29.117477 -1.442050 -47.845768 -21.924774 -6.900780 -11.961602 -2.244547 -7.896271 -10.861876 4.177925 -9.410423 -7.614250 -27.852610 3.315307 47.948170 -11.658556 4.241265 5.633307 -0.719495 7.310966 11.889784 14.895633 1.859175 1.663032 -22.961447 4.609390 0.535991 40.082230 0.218501 -2.525041 -1.937318 1.235112 -7.281469 -28.963026 -2.423817 5.980505 -33.261078 -8.565639 0.703587 28.536892 1.162642 0.818886 -6.521651 -0.763190 -3.729573 -3.381960 0.472978 -1.591294
0.068817 47.821587 0.302482 0.032082 -0.130542 -0.030728 20.107332 0.435603 1.958795 -0.024748 -0.554686 0.462351 10.704821 0.159190 -0.022773 18.660664 -0.833281 0.155938 -0.250807 -0.359733 -0.164475 -2.544535 -1.377980 1.048673 4.536294 12.046700 9.029470 -29.053574 -2.151814 -48.833641 -22.533409 -6.895858 -10.903461 -2.538187 -7.899213 -11.536642 3.877330 -9.611699 -7.226194 -28.241791 3.484305 47.811863 -11.066427 3.368407 4.738500 -1.173898 7.344411 11.963838 14.832571 1.485890 2.135431 -22.767654 4.631846 0.435427 41.205612 0.404087 -2.582777 -2.004950 0.862815 -7.781757 -29.017689 -2.412331 5.968364 -33.673435 -8.758148 1.285854 28.923115 1.465033 0.946474 -6.823912 -1.348446 -4.765711 -3.164389 0.365299 -1.627880
0.120029 47.839016 0.500454 0.031691 -0.220939 -0.040478 20.336134 0.479814 1.977217 0.057939 -0.563977 0.585131 10.690523 0.194460 0.096350 18.807642 -0.882354 0.115118 -0.306956 -0.341436 -0.112269 -2.482671 -1.188276 1.013282 4.547717 12.108363 8.926909 -28.886652 -2.091219 -49.033096 -22.493139 -7.062095 -10.826092 -2.579634 -8.113412 -11.558450 3.942945 -9.676044 -7.347973 -28.389286 3.466395 47.886730 -10.945615 3.318963 4.601340 -0.990400 7.477293 11.983089 15.098814 1.604556 2.103156 -22.954615 4.736492 0.539573 41.236286 0.447927 -2.344242 -1.754249 0.846248 -7.993476 -29.156519 -2.122247 5.764615 -33.879868 -8.845914 1.175343 28.748644 1.638813 1.000903 -6.860511 -1.334978 -4.753773 -3.052324 0.414140 -1.663586
0.066053 47.875664 0.655880 0.030419 -0.340927 -0.033874 20.638653 0.636483 2.099006 0.165830 -0.704083 0.583859 10.828912 0.163367 0.180343 18.755999 -0.811624 0.168178 -0.230542 -0.325866 -0.070955 -2.565191 -1.149620 1.190155 4.400502 12.184423 9.065217 -28.901770 -1.926999 -49.074245 -22.541418 -7.251803 -11.124982 -2.464121 -8.008989 -11.571121 3.693001 -9.664179 -7.337422 -28.203014 3.290991 47.907566 -10.837036 3.494305 4.691362 -1.096706 7.443233 11.978212 15.319924 1.774418 2.069610 -22.843798 4.568660 0.833019 41.151234 0.296029 -2.369074 -1.843462 0.932465 -7.981581 -29.216108 -1.830597 5.241013 -33.797855 -8.673806 1.362928 28.162333 1.573229 0.908873 -6.659209 -1.322927 -4.808439 -3.000031 0.382657 -1.558940
-0.025306 47.900894 0.840852 0.035504 -0.461894 -0.039773 20.815516 0.757238 2.236749 0.167179 -0.757480 0.544481 10.788041 0.119500 0.325778 18.865685 -0.722310 0.131620 -0.311742 -0.277612 -0.083928 -2.601143 -1.146566 1.360046 4.468388 12.307933 9.004199 -28.954247 -2.011515 -49.228058 -22.427101 -7.303109 -11.099191 -2.340732 -7.941640 -11.673812 3.662385 -9.618536 -7.386783 -28.251194 3.326941 48.015774 -10.589069 3.342215 4.567212 -1.555573 7.410649 11.996754 15.519674 1.951643 2.227572 -22.878092 4.629693 0.795155 40.960854 0.226958 -2.210882 -1.611607 1.056357 -8.261649 -29.478682 -1.843972 5.187840 -33.480377 -8.615464 1.372508 27.716434 1.445942 0.852931 -6.709926 -1.400532 -4.850505 -3.015376 0.401276 -1.565014
-0.107589 47.958031 1.032332 0.035137 -0.515041 -0.037472 20.972683 0.780796 2.324958 0.201733 -0.825720 0.621325 10.864025 0.093091 0.275619 18.864382 -0.689168 0.217101 -0.202101 -0.280152 -0.004914 -2.496059 -0.991031 1.477803 4.345513 12.391395 9.061993 -28.935177 -2.023574 -49.393970 -22.304457 -7.463553 -11.006915 -2.201168 -7.788395 -11.975558 3.574347 -9.649815 -7.445576 -28.197859 3.335365 48.392075 -10.627754 3.351809 4.468431 -1.455197 7.359069 11.930354 15.665453 1.993674 2.248996 -22.926279 4.627678 1.011888 40.694099 0.192345 -2.426809 -1.144790 0.957865 -8.210953 -30.058104 -1.846608 5.234695 -32.904125 -8.675056 1.390309 27.335680 1.499062 0.802101 -6.871899 -1.648856 -4.789784 -3.152996 0.396325 -1.547577
-0.198747 47.967148 1.233094 0.031188 -0.695973 -0.034219 21.141365 0.922450 2.475840 0.166740 -0.863685 0.555120 10.805223 -0.025635 0.345793 19.054396 -0.629291 0.181082 -0.257664 -0.277908 -0.037070 -2.480805 -0.797129 1.545887 4.477295 12.593870 9.111275 -28.943014 -2.097129 -49.655281 -22.288055 -7.437515 -11.018971 -2.048286 -7.711636 -12.067874 3.706902 -9.566218 -7.573797 -28.286211 3.245163 48.575912 -10.491754 3.317351 4.411895 -1.500759 7.499320 11.906798 15.929435 2.139764 2.302769 -23.094025 4.527434 1.093847 40.908054 0.295497 -2.358006 -0.987840 1.003628 -8.512508 -30.496902 -1.796970 5.176375 -32.768501 -8.714545 1.431799 26.948780 1.467333 0.745796 -6.914748 -1.785647 -4.817758 -3.046594 0.351296 -1.541288
-0.276456 47.992252 1.473520 0.031114 -0.650225 -0.036350 21.410032 0.818036 2.717573 0.161129 -0.935435 0.558684 10.734729 0.005615 0.378777 19.158117 -0.633853 0.205334 -0.246911 -0.249290 0.001876 -2.412965 -0.822649 1.566835 4.465033 12.674854 9.175780 -28.830698 -2.154756 -49.923195 -22.262085 -7.538471 -11.104346 -2.121615 -7.712521 -12.075729 3.644630 -9.687250 -7.673232 -28.239870 3.331913 48.811100 -10.423877 3.453722 4.317596 -1.592782 7.413596 11.737724 16.119392 2.072942 2.499606 -23.077051 4.329061 1.416241 40.766987 0.345489 -2.439744 -0.502400 0.822618 -8.785937 -30.959179 -1.776641 5.048618 -32.358906 -8.690997 1.450906 26.664612 1.402364 0.682442 -7.156889 -2.044755 -4.781517 -3.125377 0.482228 -1.565844
